<?xml version="1.0" encoding="UTF-8" standalone="no"?>
<!-- Created with Sodipodi ("http://www.sodipodi.com/") -->

<svg
   xmlns:dc="http://purl.org/dc/elements/1.1/"
   xmlns:cc="http://creativecommons.org/ns#"
   xmlns:rdf="http://www.w3.org/1999/02/22-rdf-syntax-ns#"
   xmlns:svg="http://www.w3.org/2000/svg"
   xmlns="http://www.w3.org/2000/svg"
   xmlns:sodipodi="http://sodipodi.sourceforge.net/DTD/sodipodi-0.dtd"
   xmlns:inkscape="http://www.inkscape.org/namespaces/inkscape"
   version="1.0"
   x="0"
   y="0"
   width="109.13385"
   height="109.13385"
   id="svg644"
   xml:space="preserve"
   inkscape:version="0.48.4 r9939"
   sodipodi:docname="wanda4.svg"><metadata
     id="metadata8"><rdf:RDF><cc:Work
         rdf:about=""><dc:format>image/svg+xml</dc:format><dc:type
           rdf:resource="http://purl.org/dc/dcmitype/StillImage" /><dc:title /></cc:Work></rdf:RDF></metadata><defs
     id="defs6" /><sodipodi:namedview
     pagecolor="#ffffff"
     bordercolor="#666666"
     borderopacity="1"
     objecttolerance="10"
     gridtolerance="10"
     guidetolerance="10"
     inkscape:pageopacity="0"
     inkscape:pageshadow="2"
     inkscape:window-width="1280"
     inkscape:window-height="740"
     id="namedview4"
     showgrid="false"
     inkscape:zoom="8.6499285"
     inkscape:cx="55.723004"
     inkscape:cy="54.566924"
     inkscape:window-x="0"
     inkscape:window-y="27"
     inkscape:window-maximized="1"
     inkscape:current-layer="svg644" /><g
     id="g2991"
     transform="matrix(0.95320762,0,0,0.90448826,9.7952111,5.9547851)"><path
       sodipodi:nodetypes="cscccccc"
       inkscape:connector-curvature="0"
       id="path738"
       style="font-size:12px;fill:none;stroke:#cccccc;stroke-width:5.48130417;stroke-linecap:round;stroke-linejoin:round;stroke-miterlimit:4;stroke-opacity:1;stroke-dasharray:none"
       d="m 48.876632,59.361539 c 15.722673,3.450229 6.427594,20.788097 19.845025,20.788097 13.589582,-1.49e-4 20.986331,-19.337102 21.674462,-22.620735 L 100.48876,74.705468 100.31681,33.9939 90.396119,54.245278 c 0,0 -4.816554,-27.363696 -21.846414,-26.634032 C 53.412013,28.34091 50.782773,45.29354 48.876632,59.361539 z" /><path
       transform="matrix(0.64234764,0,0,1.0975096,24.159647,-8.628335)"
       sodipodi:end="9.6342698"
       sodipodi:start="3.5301225"
       d="m 56.264418,52.703035 c 0.870753,-1.890869 3.301098,-2.796268 5.428325,-2.022264 2.127228,0.774003 3.145802,2.934309 2.275048,4.825178 -0.870754,1.890869 -3.301098,2.796268 -5.428326,2.022265 -1.862652,-0.677736 -2.912812,-2.443153 -2.494253,-4.193071 l 4.070892,0.769349 z"
       sodipodi:ry="3.6994526"
       sodipodi:rx="4.1618843"
       sodipodi:cy="54.104492"
       sodipodi:cx="60.116104"
       id="path3797"
       style="fill:none;stroke:#dedede;stroke-width:4.5;stroke-miterlimit:4;stroke-opacity:1;stroke-dasharray:none"
       sodipodi:type="arc" /></g></svg>